<?xml version="1.0" encoding="UTF-8" standalone="no"?>
<!-- Generator: Adobe Illustrator 16.0.0, SVG Export Plug-In . SVG Version: 6.00 Build 0)  -->

<svg
   version="1.1"
   id="Layer_1"
   x="0px"
   y="0px"
   width="999.40533"
   height="265.29782"
   viewBox="-194 189.695 999.40533 265.29782"
   enable-background="new -194 189.695 1000 412.609"
   xml:space="preserve"
   xmlns="http://www.w3.org/2000/svg"
   xmlns:svg="http://www.w3.org/2000/svg"><defs
   id="defs31" />
<path
   d="M 110.73529,209.95218 130.8862,189.695 151.03913,209.95218 130.8862,230.20631 110.73529,209.95218"
   id="path4"
   style="fill:#00b6e6;fill-opacity:1" /><path
   d="m -104.32854,421.8138 c -33.3277,0 -60.43879,-27.28491 -60.43879,-60.81783 0,-33.53192 27.11109,-60.81683 60.43879,-60.81683 33.32769,0 60.444784,27.2819 60.444784,60.81683 0,33.53292 -27.093077,60.82084 -60.448784,60.82084 m 9.9e-4,-150.02641 c -17.42692,0 -33.06349,6.22795 -48.1867,12.30152 -2.19562,0.88126 -4.38525,1.75048 -6.57387,2.61069 l -6.57487,2.55855 v -93.80435 h -20.55724 c -4.30119,0.009 -7.78177,3.50697 -7.77576,7.81702 v 156.42181 c 0,14.6345 3.03224,28.19925 8.97565,40.30627 15.2403,30.67661 46.45743,50.10539 80.66077,50.20064 48.945267,0 88.771779,-40.01653 88.771779,-89.20658 -10e-4,-49.18803 -39.788483,-89.20557 -88.739759,-89.20557"
   id="path6"
   style="fill:#00b6e6;fill-opacity:1" /><path
   d="m 805.40536,284.56353 -22.53243,-16.85426 -51.25646,68.38877 -51.24644,-68.38877 -22.53644,16.85426 56.19671,74.99763 -56.19671,75.00766 22.53644,16.85426 51.24644,-68.39378 51.25646,68.39378 22.53243,-16.85426 -56.20273,-75.00766 56.20273,-74.99763"
   id="path12"
   style="fill:#eb123f;fill-opacity:1" /><path
   d="M 29.830819,297.16007 V 271.82284 H 9.2337219 c -4.3051267,0.001 -7.7949037,3.49556 -7.7989103,7.81009 V 450.39706 H 30.170381 v -91.76001 c 1.76993,-32.51694 28.420047,-58.24151 60.672437,-58.70017 l 9.206252,-0.13046 v -28.00365 l -9.643976,0.0913 c -22.412101,0.31112 -43.896667,9.34572 -60.581287,25.26096"
   id="path1011"
   style="fill:#00b6e6;fill-opacity:1" /><path
   d="m 233.94849,411.40281 c -5.36926,-3.377 -9.33129,-8.59 -11.153,-14.67 -1.31136,-4.14 -1.31136,-8.321 -1.31136,-12.767 v -83.8417 h 52.04511 v -28.29 h -52.06308 v -76.3773 H 200.9619 c -4.28063,0.016 -7.74527,3.49 -7.75427,7.776 v 68.6183 h -31.34339 v 28.294 h 31.34339 v 89.5747 c 0,3.106 0.73907,30.779 26.25903,46.001 19.61439,11.696 42.37981,16.981 43.33961,17.203 l 8.95875,2.069 6.2911,-27.601 -8.95776,-2.072 c -0.81797,-0.185 -20.03584,-4.712 -35.14987,-13.917"
   id="path1032"
   style="fill:#00b6e6;fill-opacity:1" /><path
   d="m 145.04782,271.82284 h -20.59709 c -4.30513,0.001 -7.79491,3.49556 -7.79891,7.81009 v 170.76412 h 28.396"
   id="path1392"
   style="fill:#00b6e6;fill-opacity:1" /><path
   d="m 377.75054,420.25098 c -33.37034,0 -60.51612,-27.25957 -60.51612,-60.76135 0,-33.50078 27.14578,-60.76035 60.51612,-60.76035 33.37035,0 60.52213,27.25656 60.52213,60.76035 0,33.50178 -27.12774,60.76435 -60.52613,60.76435 m 9.9e-4,-149.88708 c -17.44922,0 -33.10579,6.22217 -48.24835,12.2901 -2.19843,0.88044 -4.39087,1.74885 -6.58229,2.60826 l -6.58328,2.55618 V 194.1042 h -20.58354 c -4.30669,0.009 -7.79173,3.50371 -7.78571,7.80976 v 156.27655 c 0,14.6209 3.03612,28.17306 8.98713,40.26883 15.2598,30.64812 46.51688,50.05886 80.76398,50.15402 49.00789,0 88.88536,-39.97936 88.88536,-89.12373 -10e-4,-49.14235 -39.83939,-89.12273 -88.8533,-89.12273"
   id="path2126"
   style="fill:#eb123f;fill-opacity:1" /><path
   id="path5837"
   d="m 572.71066,270.36647 c -49.01391,0 -89.18065,40.02319 -89.18164,89.21875 -10e-6,49.19757 40.15617,89.2207 89.16406,89.2207 49.00789,0 89.19728,-40.02313 89.19727,-89.2207 -9.9e-4,-49.19556 -40.16578,-89.21875 -89.17969,-89.21875 z m 0,28.39453 c 33.37035,0 60.85156,27.28415 60.85156,60.82422 0,33.53804 -27.47075,60.83007 -60.86914,60.83007 -33.39839,0 -60.83593,-27.29203 -60.83593,-60.83007 0,-33.54007 27.48316,-60.82422 60.85351,-60.82422 z"
   style="fill:#eb123f;fill-opacity:1" /></svg>
